<svg version="1.1" id="Layer_1" xmlns="http://www.w3.org/2000/svg" xmlns:xlink="http://www.w3.org/1999/xlink" x="0px" y="0px"
	 width="100%" viewBox="0 0 401 277" enable-background="new 0 0 401 277" xml:space="preserve">
<path fill="#FFFFFF" opacity="1.000000" stroke="none" 
	d="
M246.000000,278.000000 
	C164.000015,278.000000 82.500031,278.000000 1.000033,278.000000 
	C1.000022,185.666702 1.000022,93.333397 1.000011,1.000070 
	C134.666611,1.000047 268.333221,1.000047 401.999878,1.000023 
	C401.999939,93.333260 401.999939,185.666519 401.999969,277.999878 
	C350.166656,278.000000 298.333344,278.000000 246.000000,278.000000 
M288.993225,51.003120 
	C288.993225,51.003120 289.036957,50.995686 289.180115,50.244793 
	C285.342163,42.164028 281.504181,34.083267 277.731934,26.140844 
	C250.626862,31.848587 215.199860,47.712303 186.351410,66.186485 
	C177.305145,62.846622 169.586609,55.831013 159.015656,55.566208 
	C157.843857,54.570820 156.672073,53.575432 155.782364,52.055588 
	C155.570297,51.350571 155.358231,50.645554 155.019104,49.123405 
	C154.462677,47.154312 154.362091,43.834385 153.266022,43.464512 
	C149.702301,42.261929 145.520081,41.063194 142.053528,41.882839 
	C138.071808,42.824284 137.948349,47.258774 138.436127,51.652466 
	C139.836533,56.182220 143.240723,58.837917 146.765198,61.562439 
	C145.082535,63.956177 142.308960,66.307869 146.469482,69.654762 
	C148.663284,76.452698 150.857071,83.250633 152.650452,90.613686 
	C138.959183,98.736908 124.448257,102.864120 108.158424,98.722198 
	C108.042885,101.115662 107.972816,102.567215 106.985680,104.055946 
	C92.384842,104.064049 77.783798,104.029320 63.183254,104.099052 
	C56.302402,104.131912 52.578297,107.222038 50.494682,114.653793 
	C50.606956,119.785515 50.812408,124.917152 50.816525,130.048965 
	C50.845173,165.763290 50.856720,201.477692 50.803520,237.191971 
	C50.796242,242.079086 51.388798,246.517746 55.134754,249.454437 
	C46.213779,249.454437 37.292809,249.454437 28.371834,249.454437 
	C28.387762,250.069977 28.403692,250.685516 28.419621,251.301056 
	C144.817429,251.301056 261.215240,251.301056 377.613068,251.301056 
	C377.639313,250.857620 377.665588,250.414185 377.691833,249.970749 
	C376.199127,249.854568 374.706635,249.641129 373.213654,249.637619 
	C361.387909,249.609772 349.561890,249.587006 337.736420,249.648987 
	C335.141602,249.662582 332.967590,249.481567 333.831970,245.597977 
	C333.395081,241.103943 333.159088,236.579025 332.474579,232.123047 
	C331.430511,225.326416 330.010254,218.588058 328.917480,211.797958 
	C328.731781,210.644058 328.988861,208.998169 329.717529,208.186722 
	C334.169250,203.229233 338.713623,198.344345 343.427948,193.636383 
	C347.746429,189.323715 348.591400,183.182144 344.971008,178.458817 
	C342.320557,172.403107 338.632660,167.263626 332.791779,163.799484 
	C330.713074,162.566635 328.989349,160.735199 327.120056,158.270767 
	C325.743530,148.278595 324.407104,138.280685 322.981415,128.295517 
	C320.595093,111.582146 318.163452,94.875206 315.719330,78.170174 
	C315.372101,75.797081 314.833618,73.455231 311.518219,74.036552 
	C304.504089,75.266411 299.451050,72.949409 296.883118,65.311569 
	C296.280792,64.078941 295.678497,62.846313 294.982056,60.913799 
	C292.616486,58.299088 294.806488,53.097710 289.820312,51.420479 
	C289.544800,51.266361 289.269287,51.112240 288.993225,51.003120 
z"/>
<path fill="#747381" opacity="1.000000" stroke="none" 
	d="
M56.230598,249.114288 
	C51.388798,246.517746 50.796242,242.079086 50.803520,237.191971 
	C50.856720,201.477692 50.845173,165.763290 50.816525,130.048965 
	C50.812408,124.917152 50.606956,119.785515 51.067204,114.462234 
	C63.463928,114.748726 75.287811,115.235489 87.113754,115.665611 
	C87.495445,115.679504 87.898201,115.114082 88.737747,114.879776 
	C97.308655,114.974419 105.433846,115.089981 113.556755,114.999702 
	C116.645523,114.965370 119.729027,114.457916 123.304794,114.200142 
	C142.860428,114.485764 161.926208,114.737335 181.460876,115.015030 
	C190.632889,114.987892 199.335983,114.934639 208.502625,114.935120 
	C216.636383,115.013359 224.306625,115.037842 232.159210,115.294289 
	C232.907196,115.618797 233.472809,115.711334 234.389252,115.889442 
	C242.101257,118.591759 242.053848,124.796204 241.988312,131.454193 
	C241.988037,135.269089 242.013977,138.626511 242.015839,142.392029 
	C242.032471,143.890518 242.073166,144.980927 242.066620,146.533081 
	C242.028580,152.992233 242.037796,158.989655 242.012299,165.331940 
	C241.926178,166.135696 241.874771,166.594589 241.366119,167.034790 
	C228.917404,167.009018 216.925323,166.924789 204.934677,167.020737 
	C196.299774,167.089828 188.544357,175.019577 187.932297,183.515976 
	C186.985916,196.653442 196.642319,203.891541 207.725067,203.969879 
	C219.049622,204.049927 230.375381,203.962769 241.767456,204.415955 
	C241.845993,215.837158 241.856583,226.791199 241.869843,237.745255 
	C241.875595,242.497543 240.539062,246.557846 235.662827,249.077087 
	C232.958267,249.436111 230.673218,249.994812 228.387680,249.996857 
	C173.449692,250.045670 118.511642,250.046753 63.573654,249.995956 
	C61.125702,249.993698 58.678272,249.421188 56.230598,249.114288 
z"/>
<path fill="#666578" opacity="1.000000" stroke="none" 
	d="
M295.076172,61.613682 
	C295.678497,62.846313 296.280792,64.078941 296.651337,65.931534 
	C295.924835,71.293060 295.430145,76.034622 294.581299,80.899643 
	C289.253632,88.166824 287.964539,98.145027 293.915833,106.472946 
	C295.004883,109.890327 296.007141,112.944839 296.939117,116.364883 
	C294.582306,117.488159 292.295776,118.245895 289.603821,119.052650 
	C279.794342,119.736229 270.390228,120.370781 260.548248,120.984543 
	C257.232208,121.193359 254.354050,121.422974 250.678940,121.716164 
	C252.287811,109.773300 253.601639,98.162201 255.555573,86.659843 
	C256.134399,83.252480 255.357986,81.987274 252.468369,80.697517 
	C244.183914,76.999802 235.852402,73.443810 231.595795,64.298676 
	C230.357040,61.637280 229.549805,59.996452 232.287689,57.922314 
	C233.001175,57.476025 233.458496,57.148739 234.261505,56.903015 
	C236.156067,58.645168 238.016541,60.111195 239.197021,62.001804 
	C243.181717,68.383514 249.479095,70.333061 256.300751,71.291817 
	C257.375244,71.442825 258.585083,70.707550 259.718933,70.340645 
	C261.198669,69.861816 262.635620,69.064407 264.144104,68.904160 
	C266.418365,68.662575 268.738617,68.853645 271.384827,68.744003 
	C274.160492,68.160805 276.590607,67.694412 279.201324,67.498306 
	C280.573517,68.841110 281.765106,69.913628 282.693756,70.749458 
	C284.725220,70.035431 286.488708,69.672813 287.936707,68.791702 
	C288.601562,68.387108 288.647247,66.964890 288.990417,65.594788 
	C289.037506,63.820751 289.067902,62.456051 289.479584,61.073616 
	C291.599304,61.241817 293.337738,61.427750 295.076172,61.613682 
z"/>
<path fill="#6C6B77" opacity="1.000000" stroke="none" 
	d="
M345.086731,179.199982 
	C348.591400,183.182144 347.746429,189.323715 343.427948,193.636383 
	C338.713623,198.344345 334.169250,203.229233 329.717529,208.186722 
	C328.988861,208.998169 328.731781,210.644058 328.917480,211.797958 
	C330.010254,218.588058 331.430511,225.326416 332.474579,232.123047 
	C333.159088,236.579025 333.395081,241.103943 333.167419,245.694855 
	C329.527100,244.548615 326.639069,242.655273 323.551727,242.238586 
	C320.221893,241.789169 316.705536,242.721710 313.259155,242.647797 
	C313.053436,240.559525 312.462891,238.808960 312.730133,237.200974 
	C314.295624,227.783203 315.213501,218.355820 311.246857,209.349365 
	C309.409607,205.177795 310.450256,202.052063 312.952789,198.878632 
	C316.337830,194.586105 319.721039,190.292130 323.493164,185.998810 
	C326.855316,185.319626 329.903290,184.863373 332.785889,183.908112 
	C336.949066,182.528488 340.992310,180.787018 345.086731,179.199982 
z"/>
<path fill="#9AC986" opacity="1.000000" stroke="none" 
	d="
M297.009399,115.999352 
	C296.007141,112.944839 295.004883,109.890327 294.259521,106.315842 
	C295.122772,105.542854 295.719879,105.264175 296.336914,105.040703 
	C303.614075,102.405365 303.707489,101.907936 300.518402,94.923042 
	C298.415771,90.317741 296.780151,85.499229 294.935425,80.776184 
	C295.430145,76.034622 295.924835,71.293060 296.682648,66.277969 
	C299.451050,72.949409 304.504089,75.266411 311.518219,74.036552 
	C314.833618,73.455231 315.372101,75.797081 315.719330,78.170174 
	C318.163452,94.875206 320.595093,111.582146 322.981415,128.295517 
	C324.407104,138.280685 325.743530,148.278595 326.774689,158.583588 
	C322.949432,156.939072 319.469574,154.981750 315.993286,152.583344 
	C315.919159,150.663528 315.917999,149.176132 315.751526,147.707474 
	C314.517609,136.819778 313.250763,125.935837 311.996460,115.031258 
	C311.998657,115.011803 312.000000,114.972664 312.364594,114.941544 
	C314.757599,114.042152 316.785980,113.173874 318.840271,112.294518 
	C316.715454,108.586121 316.715454,108.586121 311.619324,111.027817 
	C306.503174,112.714081 301.756287,114.356720 297.009399,115.999352 
z"/>
<path fill="#686679" opacity="1.000000" stroke="none" 
	d="
M313.270569,243.051392 
	C316.705536,242.721710 320.221893,241.789169 323.551727,242.238586 
	C326.639069,242.655273 329.527100,244.548615 332.837036,245.934753 
	C332.967590,249.481567 335.141602,249.662582 337.736420,249.648987 
	C349.561890,249.587006 361.387909,249.609772 373.213654,249.637619 
	C374.706635,249.641129 376.199127,249.854568 377.691833,249.970749 
	C377.665588,250.414185 377.639313,250.857620 377.613068,251.301056 
	C261.215240,251.301056 144.817429,251.301056 28.419621,251.301056 
	C28.403692,250.685516 28.387762,250.069977 28.371834,249.454437 
	C37.292809,249.454437 46.213779,249.454437 55.682678,249.284363 
	C58.678272,249.421188 61.125702,249.993698 63.573654,249.995956 
	C118.511642,250.046753 173.449692,250.045670 228.387680,249.996857 
	C230.673218,249.994812 232.958267,249.436111 235.906845,249.415680 
	C259.011383,249.694611 281.452637,249.694611 304.111542,249.694611 
	C303.805817,248.818085 303.476776,247.874756 303.412750,247.691223 
	C306.936615,246.032623 310.103607,244.542007 313.270569,243.051392 
z"/>
<path fill="#9BCA87" opacity="1.000000" stroke="none" 
	d="
M289.098297,61.091354 
	C289.067902,62.456051 289.037506,63.820751 288.649170,65.541122 
	C286.759918,63.914288 285.228668,61.931778 283.776306,59.523766 
	C285.672119,53.251572 282.001465,50.087135 277.986023,46.706841 
	C276.676636,43.131588 275.587250,39.820011 273.938263,36.815575 
	C273.366425,35.773670 271.158081,34.681904 270.122559,34.999542 
	C264.293152,36.787689 258.586761,38.980209 252.851257,41.070084 
	C246.540436,43.369595 240.243530,45.707272 233.689850,47.822815 
	C231.947998,44.831356 230.061188,44.593468 228.419235,47.266354 
	C227.399002,48.927116 227.058517,51.005447 226.058441,53.019096 
	C217.117905,58.103783 208.516754,63.039848 199.954758,68.042946 
	C197.277252,69.607506 194.705399,71.352844 192.005981,72.674538 
	C190.284882,70.431290 188.642960,68.528931 187.001038,66.626572 
	C215.199860,47.712303 250.626862,31.848587 277.731934,26.140844 
	C281.504181,34.083267 285.342163,42.164028 288.731598,50.619541 
	C287.735229,52.110016 286.576385,53.341656 286.761658,54.318317 
	C287.202148,56.640190 288.278687,58.841400 289.098297,61.091354 
z"/>
<path fill="#99C884" opacity="1.000000" stroke="none" 
	d="
M122.814934,114.166092 
	C119.729027,114.457916 116.645523,114.965370 113.556755,114.999702 
	C105.433846,115.089981 97.308655,114.974419 88.731308,114.527466 
	C93.534264,112.451408 98.746681,110.627342 104.063736,109.190552 
	C106.951584,108.410187 108.447006,107.102806 107.902740,104.018768 
	C107.972816,102.567215 108.042885,101.115662 108.158424,98.722198 
	C124.448257,102.864120 138.959183,98.736908 153.191437,90.323715 
	C155.213852,89.122437 156.695282,88.211121 158.524307,87.219582 
	C161.247971,85.762047 163.624069,84.384735 166.324463,82.889175 
	C171.050140,79.689957 175.451538,76.608986 180.799225,72.865601 
	C181.856354,76.137611 182.961533,79.558342 183.687668,82.988815 
	C181.549850,83.822220 179.732407,84.540977 178.041794,85.486534 
	C166.956207,91.686668 156.014343,98.155884 144.788727,104.089157 
	C137.675827,107.848656 130.153595,110.833717 122.814934,114.166092 
z"/>
<path fill="#37DAC1" opacity="1.000000" stroke="none" 
	d="
M315.989716,153.024445 
	C319.469574,154.981750 322.949432,156.939072 326.766479,159.036697 
	C328.989349,160.735199 330.713074,162.566635 332.791779,163.799484 
	C338.632660,167.263626 342.320557,172.403107 345.028870,178.829391 
	C340.992310,180.787018 336.949066,182.528488 332.785889,183.908112 
	C329.903290,184.863373 326.855316,185.319626 323.417175,185.633179 
	C320.255035,183.790131 317.556946,182.312729 314.854065,180.464996 
	C315.432526,178.753464 316.265320,177.460983 316.538910,176.059341 
	C316.921570,174.098709 316.887329,172.056686 317.031464,170.049500 
	C314.892303,170.117630 312.737061,170.045837 310.618195,170.290039 
	C308.091522,170.581268 305.596100,171.143311 302.871704,171.330963 
	C302.259247,169.773560 301.862213,168.473190 301.587952,166.825684 
	C301.842651,164.604492 301.974579,162.730453 302.414795,160.969528 
	C303.482666,160.446823 304.743408,159.920731 304.910980,159.155304 
	C305.489929,156.510712 305.687897,153.782730 306.420288,151.052475 
	C309.869659,151.687103 312.929688,152.355759 315.989716,153.024445 
z"/>
<path fill="#6D6C77" opacity="1.000000" stroke="none" 
	d="
M184.066711,82.979073 
	C182.961533,79.558342 181.856354,76.137611 180.799225,72.865601 
	C175.451538,76.608986 171.050140,79.689957 166.158630,82.565125 
	C164.414673,80.259613 163.160843,78.159912 161.928986,76.027916 
	C161.950943,75.995621 161.950638,76.073715 161.900528,75.855423 
	C161.720123,75.355865 161.516678,75.145317 161.154999,74.620293 
	C160.535492,72.504448 159.987579,70.777817 159.469284,69.042328 
	C158.216003,64.845619 156.173615,60.665241 159.143356,56.358654 
	C169.586609,55.831013 177.305145,62.846622 186.676224,66.406525 
	C188.642960,68.528931 190.284882,70.431290 191.955658,73.139359 
	C192.043945,79.952896 192.103378,85.960716 192.101547,92.298447 
	C191.998352,93.073219 191.956421,93.518082 191.530258,93.971161 
	C189.168884,93.657486 187.191727,93.335594 185.178207,92.640503 
	C185.119843,91.518448 185.097839,90.769585 185.105621,89.619118 
	C184.779160,87.138039 184.422943,85.058556 184.066711,82.979073 
z"/>
<path fill="#605F67" opacity="1.000000" stroke="none" 
	d="
M107.444214,104.037354 
	C108.447006,107.102806 106.951584,108.410187 104.063736,109.190552 
	C98.746681,110.627342 93.534264,112.451408 88.284683,114.466400 
	C87.898201,115.114082 87.495445,115.679504 87.113754,115.665611 
	C75.287811,115.235489 63.463928,114.748726 51.273193,114.118393 
	C52.578297,107.222038 56.302402,104.131912 63.183254,104.099052 
	C77.783798,104.029320 92.384842,104.064049 107.444214,104.037354 
z"/>
<path fill="#37D7C0" opacity="1.000000" stroke="none" 
	d="
M159.079498,55.962433 
	C156.173615,60.665241 158.216003,64.845619 159.469284,69.042328 
	C159.987579,70.777817 160.535492,72.504448 161.172302,74.853592 
	C161.389603,75.796562 161.614929,75.997108 161.950638,76.073715 
	C161.950638,76.073715 161.950943,75.995621 161.924286,76.416084 
	C162.732727,81.781494 157.778946,80.033630 155.651215,81.792496 
	C154.821411,80.153091 154.056595,78.696480 153.892227,77.175003 
	C153.394638,72.568748 149.769577,70.933716 146.481293,68.927307 
	C142.308960,66.307869 145.082535,63.956177 147.259369,61.412125 
	C152.597122,60.586330 151.862579,56.191212 153.143372,53.119293 
	C153.125366,53.086609 153.051666,53.074764 153.370483,53.131958 
	C154.292953,52.986118 154.896622,52.783085 155.500275,52.580048 
	C156.672073,53.575432 157.843857,54.570820 159.079498,55.962433 
z"/>
<path fill="#B2848B" opacity="1.000000" stroke="none" 
	d="
M153.161392,53.151985 
	C151.862579,56.191212 152.597122,60.586330 147.464661,61.129463 
	C143.240723,58.837917 139.836533,56.182220 138.707428,51.315872 
	C141.551788,49.163532 144.124832,47.347782 146.336975,45.786713 
	C149.244888,48.925091 151.203140,51.038540 153.161392,53.151985 
z"/>
<path fill="#73707B" opacity="1.000000" stroke="none" 
	d="
M153.143372,53.119297 
	C151.203140,51.038540 149.244888,48.925091 146.336975,45.786713 
	C144.124832,47.347782 141.551788,49.163532 138.604034,50.993092 
	C137.948349,47.258774 138.071808,42.824284 142.053528,41.882839 
	C145.520081,41.063194 149.702301,42.261929 153.266022,43.464512 
	C154.362091,43.834385 154.462677,47.154312 154.888779,49.803596 
	C154.189529,51.347446 153.620590,52.211105 153.051666,53.074764 
	C153.051666,53.074764 153.125366,53.086609 153.143372,53.119297 
z"/>
<path fill="#70727D" opacity="1.000000" stroke="none" 
	d="
M146.475388,69.291031 
	C149.769577,70.933716 153.394638,72.568748 153.892227,77.175003 
	C154.056595,78.696480 154.821411,80.153091 155.789642,82.120361 
	C156.903976,84.167519 157.540359,85.733673 158.176727,87.299820 
	C156.695282,88.211121 155.213852,89.122437 153.391632,90.041161 
	C150.857071,83.250633 148.663284,76.452698 146.475388,69.291031 
z"/>
<path fill="#EFD5D1" opacity="1.000000" stroke="none" 
	d="
M289.479584,61.073620 
	C288.278687,58.841400 287.202148,56.640190 286.761658,54.318317 
	C286.576385,53.341656 287.735229,52.110016 288.660034,50.994987 
	C289.036957,50.995686 288.993225,51.003120 289.072845,51.197807 
	C289.335876,51.654709 289.579681,51.835518 289.883820,51.934925 
	C294.806488,53.097710 292.616486,58.299088 295.029114,61.263741 
	C293.337738,61.427750 291.599304,61.241817 289.479584,61.073620 
z"/>
<path fill="#B2848B" opacity="1.000000" stroke="none" 
	d="
M153.370483,53.131958 
	C153.620590,52.211105 154.189529,51.347446 154.952316,50.212158 
	C155.358231,50.645554 155.570297,51.350571 155.641327,52.317818 
	C154.896622,52.783085 154.292953,52.986118 153.370483,53.131958 
z"/>
<path fill="#9BCA87" opacity="1.000000" stroke="none" 
	d="
M289.852051,51.677704 
	C289.579681,51.835518 289.335876,51.654709 289.073120,51.175308 
	C289.269287,51.112240 289.544800,51.266361 289.852051,51.677704 
z"/>
<path fill="#FDFDFD" opacity="1.000000" stroke="none" 
	d="
M314.858887,180.835327 
	C317.556946,182.312729 320.255035,183.790131 323.029114,185.633148 
	C319.721039,190.292130 316.337830,194.586105 312.952789,198.878632 
	C310.450256,202.052063 309.409607,205.177795 311.246857,209.349365 
	C315.213501,218.355820 314.295624,227.783203 312.730133,237.200974 
	C312.462891,238.808960 313.053436,240.559525 313.259155,242.647812 
	C310.103607,244.542007 306.936615,246.032623 303.412750,247.691223 
	C303.476776,247.874756 303.805817,248.818085 304.111542,249.694611 
	C281.452637,249.694611 259.011383,249.694611 236.326126,249.356003 
	C240.539062,246.557846 241.875595,242.497543 241.869843,237.745255 
	C241.856583,226.791199 241.845993,215.837158 241.861206,203.959106 
	C241.946152,193.689240 242.004196,184.343369 242.451218,174.919769 
	C250.179993,173.630463 257.519806,172.418930 265.046967,171.557434 
	C265.856506,175.614441 266.695862,179.300735 267.051331,183.033112 
	C267.622620,189.031586 267.874115,195.060516 267.897125,201.177460 
	C267.064850,201.456665 266.596222,201.634979 265.758728,201.684143 
	C262.948547,201.969727 260.479675,202.272858 258.081970,202.864319 
	C257.321838,203.051804 256.751465,204.008331 256.094238,204.612915 
	C256.824280,205.161896 257.554352,205.710892 258.545929,206.529480 
	C268.699280,211.993500 279.095551,213.312607 290.372711,210.878983 
	C295.707855,209.132217 300.653442,207.363846 305.599060,205.595490 
	C305.501740,204.971115 305.404449,204.346741 305.307159,203.722382 
	C303.841827,203.148605 302.376526,202.574844 300.922089,201.634933 
	C302.558716,199.095367 304.235504,196.957916 305.798370,194.740173 
	C308.223511,191.298889 310.597198,187.820358 312.936157,184.319855 
	C313.670502,183.220795 314.223083,182.000275 314.858887,180.835327 
z"/>
<path fill="#A4D88D" opacity="1.000000" stroke="none" 
	d="
M192.162811,91.968529 
	C192.103378,85.960716 192.043945,79.952896 192.034851,73.480255 
	C194.705399,71.352844 197.277252,69.607506 199.954758,68.042946 
	C208.516754,63.039848 217.117905,58.103783 226.297913,53.213692 
	C228.605118,54.870804 230.318329,56.456055 232.031540,58.041313 
	C229.549805,59.996452 230.357040,61.637280 231.595795,64.298676 
	C235.852402,73.443810 244.183914,76.999802 252.468369,80.697517 
	C255.357986,81.987274 256.134399,83.252480 255.555573,86.659843 
	C253.601639,98.162201 252.287811,109.773300 250.678940,121.716164 
	C254.354050,121.422974 257.232208,121.193359 260.561707,121.313995 
	C260.973419,122.101608 260.933777,122.538956 260.522644,122.988258 
	C258.195374,123.784210 256.211365,124.505119 254.289627,125.365234 
	C250.180832,127.204208 246.104279,129.115219 242.014511,130.996735 
	C242.053848,124.796204 242.101257,118.591759 234.337723,115.614258 
	C233.282532,115.189781 232.629684,115.126053 231.976852,115.062325 
	C224.306625,115.037842 216.636383,115.013359 208.493301,114.554611 
	C205.666138,104.637802 200.606613,97.091827 192.162811,91.968529 
z"/>
<path fill="#5C5C65" opacity="1.000000" stroke="none" 
	d="
M242.062256,174.997513 
	C242.004196,184.343369 241.946152,193.689240 241.794342,203.491959 
	C230.375381,203.962769 219.049622,204.049927 207.725067,203.969879 
	C196.642319,203.891541 186.985916,196.653442 187.932297,183.515976 
	C188.544357,175.019577 196.299774,167.089828 204.934677,167.020737 
	C216.925323,166.924789 228.917404,167.009018 241.417175,167.472961 
	C241.971069,170.285706 242.016663,172.641602 242.062256,174.997513 
M215.110321,186.239029 
	C214.175125,183.911163 213.826050,180.970459 212.174820,179.391312 
	C209.309830,176.651413 204.226379,177.854279 202.140518,181.075211 
	C199.893845,184.544464 201.121521,189.690613 204.627731,191.501038 
	C208.612701,193.558655 212.604767,191.848419 215.110321,186.239029 
z"/>
<path fill="#A4D98D" opacity="1.000000" stroke="none" 
	d="
M183.687683,82.988815 
	C184.422943,85.058556 184.779160,87.138039 184.741211,89.645660 
	C180.136673,91.757324 178.901108,95.408409 179.100922,99.326035 
	C179.368164,104.565506 180.328995,109.769615 180.991989,114.988907 
	C161.926208,114.737335 142.860428,114.485764 123.304794,114.200150 
	C130.153595,110.833717 137.675827,107.848656 144.788727,104.089157 
	C156.014343,98.155884 166.956207,91.686668 178.041794,85.486534 
	C179.732407,84.540977 181.549850,83.822220 183.687683,82.988815 
z"/>
<path fill="#99C884" opacity="1.000000" stroke="none" 
	d="
M181.460876,115.015030 
	C180.328995,109.769615 179.368164,104.565506 179.100922,99.326035 
	C178.901108,95.408409 180.136673,91.757324 184.711426,90.047256 
	C185.097839,90.769585 185.119843,91.518448 185.084534,92.980911 
	C184.422424,95.177536 183.817612,96.660568 183.576767,97.251122 
	C185.131104,99.196823 186.152100,100.474892 187.182190,101.764343 
	C192.144119,100.332184 192.144119,100.332184 191.914490,93.962944 
	C191.956421,93.518082 191.998352,93.073219 192.101547,92.298447 
	C200.606613,97.091827 205.666138,104.637802 208.029770,114.500862 
	C199.335983,114.934639 190.632889,114.987892 181.460876,115.015030 
z"/>
<path fill="#A4D98D" opacity="1.000000" stroke="none" 
	d="
M242.047012,164.987076 
	C242.037796,158.989655 242.028580,152.992233 242.432648,146.506531 
	C248.939743,143.315918 255.033539,140.613586 261.358215,138.248322 
	C262.033295,146.384613 262.477478,154.183807 262.490723,161.987915 
	C255.388855,162.990906 248.717941,163.988998 242.047012,164.987076 
z"/>
<path fill="#9AC986" opacity="1.000000" stroke="none" 
	d="
M242.012299,165.331940 
	C248.717941,163.988998 255.388855,162.990906 262.579468,162.360809 
	C263.685944,165.555008 264.272797,168.381195 264.859619,171.207397 
	C257.519806,172.418930 250.179993,173.630463 242.451218,174.919769 
	C242.016663,172.641602 241.971069,170.285706 241.874420,167.491638 
	C241.874771,166.594589 241.926178,166.135696 242.012299,165.331940 
z"/>
<path fill="#99C984" opacity="1.000000" stroke="none" 
	d="
M241.988312,131.454193 
	C246.104279,129.115219 250.180832,127.204208 254.289627,125.365234 
	C256.211365,124.505119 258.195374,123.784210 260.577576,123.445908 
	C260.972290,127.252319 260.940643,130.613037 260.536407,133.985718 
	C254.122543,136.659744 248.081238,139.321854 242.039917,141.983948 
	C242.013977,138.626511 241.988037,135.269089 241.988312,131.454193 
z"/>
<path fill="#8EB97C" opacity="1.000000" stroke="none" 
	d="
M242.015839,142.392029 
	C248.081238,139.321854 254.122543,136.659744 260.583740,134.379227 
	C261.044891,135.810959 261.086121,136.861099 261.127350,137.911255 
	C255.033539,140.613586 248.939743,143.315918 242.479904,146.044800 
	C242.073166,144.980927 242.032471,143.890518 242.015839,142.392029 
z"/>
<path fill="#99C884" opacity="1.000000" stroke="none" 
	d="
M232.159210,115.294289 
	C232.629684,115.126053 233.282532,115.189781 233.986893,115.528694 
	C233.472809,115.711334 232.907196,115.618797 232.159210,115.294289 
z"/>
<path fill="#6D6B76" opacity="1.000000" stroke="none" 
	d="
M261.358215,138.248322 
	C261.086121,136.861099 261.044891,135.810959 260.956299,134.367279 
	C260.940643,130.613037 260.972290,127.252319 260.949066,123.433945 
	C260.933777,122.538956 260.973419,122.101608 260.999603,121.334793 
	C270.390228,120.370781 279.794342,119.736229 289.635315,119.404816 
	C290.428802,120.829109 290.785400,121.950241 291.113831,123.473358 
	C292.062866,129.339859 291.536285,135.485336 299.310699,137.015259 
	C304.361053,138.009125 307.063812,144.911118 304.845795,149.849243 
	C302.502533,148.925415 300.383301,148.265594 298.274811,147.572952 
	C296.349854,146.940598 294.436554,146.272705 292.176666,145.504395 
	C292.896942,150.137711 293.427460,153.550507 293.723083,157.195892 
	C294.668182,160.651001 295.848267,163.873520 296.987305,167.514267 
	C297.960876,173.286255 298.975525,178.640030 299.989319,184.432922 
	C300.057709,186.194763 300.242493,187.523270 300.176544,188.839188 
	C299.844574,195.462723 293.451721,201.520844 287.668671,200.673492 
	C288.852417,197.363159 289.815582,194.345825 290.778778,191.328491 
	C290.285461,191.404434 289.792145,191.480392 289.298798,191.556335 
	C288.649902,188.392578 287.923096,185.242355 287.370850,182.061813 
	C286.592712,177.580170 285.943939,173.076080 285.196472,168.218765 
	C284.091980,164.901291 283.030823,161.946655 282.000793,158.589691 
	C280.572693,153.291000 279.113464,148.394608 277.654205,143.498230 
	C277.184387,143.621307 276.714539,143.744385 276.244690,143.867462 
	C276.244690,148.899414 276.244690,153.931366 276.162109,159.418152 
	C276.086243,163.252014 276.092987,166.631012 276.066498,170.470978 
	C275.938354,175.535629 275.703125,180.141876 275.786072,184.742386 
	C275.877960,189.840897 276.260620,194.934174 276.125244,200.026886 
	C273.242767,200.374893 270.751770,200.725723 268.260742,201.076569 
	C267.874115,195.060516 267.622620,189.031586 267.051331,183.033112 
	C266.695862,179.300735 265.856506,175.614441 265.046967,171.557434 
	C264.272797,168.381195 263.685944,165.555008 263.010376,162.355911 
	C262.477478,154.183807 262.033295,146.384613 261.358215,138.248322 
z"/>
<path fill="#A4D88D" opacity="1.000000" stroke="none" 
	d="
M233.940552,48.028320 
	C240.243530,45.707272 246.540436,43.369595 252.851257,41.070084 
	C258.586761,38.980209 264.293152,36.787689 270.122559,34.999542 
	C271.158081,34.681904 273.366425,35.773670 273.938263,36.815575 
	C275.587250,39.820011 276.676636,43.131588 277.602295,46.714836 
	C265.249939,50.020145 264.735504,52.006798 267.043671,59.930206 
	C268.363373,63.162842 269.701324,66.011826 271.039307,68.860809 
	C268.738617,68.853645 266.418365,68.662575 264.144104,68.904160 
	C262.635620,69.064407 261.198669,69.861816 259.718933,70.340645 
	C258.585083,70.707550 257.375244,71.442825 256.300751,71.291817 
	C249.479095,70.333061 243.181717,68.383514 239.197021,62.001804 
	C238.016541,60.111195 236.156067,58.645168 234.328201,56.471275 
	C234.012985,53.314754 233.976776,50.671535 233.940552,48.028320 
z"/>
<path fill="#A3D78D" opacity="1.000000" stroke="none" 
	d="
M294.581299,80.899635 
	C296.780151,85.499229 298.415771,90.317741 300.518402,94.923042 
	C303.707489,101.907936 303.614075,102.405365 296.336914,105.040703 
	C295.719879,105.264175 295.122772,105.542854 294.172729,105.952972 
	C287.964539,98.145027 289.253632,88.166824 294.581299,80.899635 
z"/>
<path fill="#8DB77C" opacity="1.000000" stroke="none" 
	d="
M291.141968,123.071381 
	C290.785400,121.950241 290.428802,120.829109 290.040741,119.355804 
	C292.295776,118.245895 294.582306,117.488159 296.939117,116.364883 
	C301.756287,114.356720 306.503174,112.714081 311.622528,111.427567 
	C311.996674,112.846680 311.998322,113.909668 312.000000,114.972664 
	C312.000000,114.972664 311.998657,115.011803 311.634155,115.057083 
	C304.560425,117.758705 297.851196,120.415047 291.141968,123.071381 
z"/>
<path fill="#F8D6D7" opacity="1.000000" stroke="none" 
	d="
M233.689850,47.822815 
	C233.976776,50.671535 234.012985,53.314754 233.982513,56.389709 
	C233.458496,57.148739 233.001175,57.476025 232.287689,57.922310 
	C230.318329,56.456055 228.605118,54.870804 226.652435,53.090958 
	C227.058517,51.005447 227.399002,48.927116 228.419235,47.266354 
	C230.061188,44.593468 231.947998,44.831356 233.689850,47.822815 
z"/>
<path fill="#A1D18C" opacity="1.000000" stroke="none" 
	d="
M283.697388,59.949272 
	C285.228668,61.931778 286.759918,63.914288 288.632446,65.950470 
	C288.647247,66.964890 288.601562,68.387108 287.936707,68.791702 
	C286.488708,69.672813 284.725220,70.035431 282.693756,70.749458 
	C281.765106,69.913628 280.573517,68.841110 279.223816,67.157700 
	C279.054962,66.319847 279.044159,66.092873 279.275452,65.648834 
	C280.910797,63.604259 282.304077,61.776764 283.697388,59.949272 
z"/>
<path fill="#F1CFD1" opacity="1.000000" stroke="none" 
	d="
M279.033386,65.865906 
	C279.044159,66.092873 279.054962,66.319847 279.043243,66.887421 
	C276.590607,67.694412 274.160492,68.160805 271.384827,68.744011 
	C269.701324,66.011826 268.363373,63.162842 267.429932,60.007412 
	C268.862579,60.359730 270.649689,60.882931 270.795502,61.699268 
	C271.732422,66.945045 275.504883,66.065315 279.033386,65.865906 
z"/>
<path fill="#A3D78D" opacity="1.000000" stroke="none" 
	d="
M291.113831,123.473358 
	C297.851196,120.415047 304.560425,117.758705 311.631958,115.076538 
	C313.250763,125.935837 314.517609,136.819778 315.751526,147.707474 
	C315.917999,149.176132 315.919159,150.663528 315.993286,152.583344 
	C312.929688,152.355759 309.869659,151.687103 306.202393,150.947266 
	C305.304993,150.695084 305.131439,150.436050 305.074493,150.098953 
	C307.063812,144.911118 304.361053,138.009125 299.310699,137.015259 
	C291.536285,135.485336 292.062866,129.339859 291.113831,123.473358 
z"/>
<path fill="#87AD75" opacity="1.000000" stroke="none" 
	d="
M312.364594,114.941544 
	C311.998322,113.909668 311.996674,112.846680 311.991791,111.383926 
	C316.715454,108.586121 316.715454,108.586121 318.840271,112.294518 
	C316.785980,113.173874 314.757599,114.042152 312.364594,114.941544 
z"/>
<path fill="#5A5866" opacity="1.000000" stroke="none" 
	d="
M279.275452,65.648834 
	C275.504883,66.065315 271.732422,66.945045 270.795502,61.699268 
	C270.649689,60.882931 268.862579,60.359730 267.448181,59.623764 
	C264.735504,52.006798 265.249939,50.020145 277.602478,47.099144 
	C282.001465,50.087135 285.672119,53.251572 283.776306,59.523766 
	C282.304077,61.776764 280.910797,63.604259 279.275452,65.648834 
z"/>
<path fill="#727799" opacity="1.000000" stroke="none" 
	d="
M158.524307,87.219589 
	C157.540359,85.733673 156.903976,84.167519 156.129181,82.273506 
	C157.778946,80.033630 162.732727,81.781494 161.902313,76.448380 
	C163.160843,78.159912 164.414673,80.259613 165.834320,82.683365 
	C163.624069,84.384735 161.247971,85.762047 158.524307,87.219589 
z"/>
<path fill="#F5C9C9" opacity="1.000000" stroke="none" 
	d="
M287.448120,200.966507 
	C293.451721,201.520844 299.844574,195.462723 300.176544,188.839188 
	C300.242493,187.523270 300.057709,186.194763 300.140411,184.114624 
	C301.117950,181.147141 302.124878,178.983643 302.708313,176.711426 
	C303.127502,175.078827 302.981171,173.301041 303.087128,171.588013 
	C305.596100,171.143311 308.091522,170.581268 310.618195,170.290039 
	C312.737061,170.045837 314.892303,170.117630 317.031464,170.049500 
	C316.887329,172.056686 316.921570,174.098709 316.538910,176.059341 
	C316.265320,177.460983 315.432526,178.753464 314.854065,180.464996 
	C314.223083,182.000275 313.670502,183.220795 312.936157,184.319855 
	C310.597198,187.820358 308.223511,191.298889 305.798370,194.740173 
	C304.235504,196.957916 302.558716,199.095367 300.596741,201.720078 
	C296.830322,204.710068 293.400146,207.248779 289.614807,209.782623 
	C287.802002,209.189362 286.344299,208.600937 285.012329,207.706146 
	C284.869690,206.092957 284.601318,204.786118 284.307922,203.357193 
	C285.282959,202.631165 286.406311,201.794724 287.510132,200.962296 
	C287.490631,200.966324 287.448120,200.966507 287.448120,200.966507 
z"/>
<path fill="#F5C9C9" opacity="1.000000" stroke="none" 
	d="
M304.845795,149.849243 
	C305.131439,150.436050 305.304993,150.695084 305.813049,150.981293 
	C305.687897,153.782730 305.489929,156.510712 304.910980,159.155304 
	C304.743408,159.920731 303.482666,160.446823 302.236755,160.668732 
	C299.152954,159.157639 296.555481,158.060471 293.958008,156.963303 
	C293.427460,153.550507 292.896942,150.137711 292.176666,145.504395 
	C294.436554,146.272705 296.349854,146.940598 298.274811,147.572952 
	C300.383301,148.265594 302.502533,148.925415 304.845795,149.849243 
z"/>
<path fill="#F1F2F1" opacity="1.000000" stroke="none" 
	d="
M302.871704,171.330963 
	C302.981171,173.301041 303.127502,175.078827 302.708313,176.711426 
	C302.124878,178.983643 301.117950,181.147141 300.141235,183.675476 
	C298.975525,178.640030 297.960876,173.286255 297.365356,167.530823 
	C299.011414,167.143692 300.238312,167.158264 301.465210,167.172821 
	C301.862213,168.473190 302.259247,169.773560 302.871704,171.330963 
z"/>
<path fill="#97C588" opacity="1.000000" stroke="none" 
	d="
M301.587952,166.825684 
	C300.238312,167.158264 299.011414,167.143692 297.406433,167.112579 
	C295.848267,163.873520 294.668182,160.651001 293.723083,157.195892 
	C296.555481,158.060471 299.152954,159.157639 301.928467,160.555603 
	C301.974579,162.730453 301.842651,164.604492 301.587952,166.825684 
z"/>
<path fill="#B18587" opacity="1.000000" stroke="none" 
	d="
M191.530258,93.971161 
	C192.144119,100.332184 192.144119,100.332184 187.182190,101.764343 
	C186.152100,100.474892 185.131104,99.196823 183.576767,97.251122 
	C183.817612,96.660568 184.422424,95.177536 185.120911,93.354095 
	C187.191727,93.335594 189.168884,93.657486 191.530258,93.971161 
z"/>
<path fill="#727799" opacity="1.000000" stroke="none" 
	d="
M161.900528,75.855423 
	C161.614929,75.997108 161.389603,75.796562 161.257355,75.238785 
	C161.516678,75.145317 161.720123,75.355865 161.900528,75.855423 
z"/>
<path fill="#6D6C77" opacity="1.000000" stroke="none" 
	d="
M284.886597,208.012527 
	C286.344299,208.600937 287.802002,209.189362 289.618408,210.050446 
	C289.979126,210.501221 289.981140,210.679291 289.983154,210.857376 
	C279.095551,213.312607 268.699280,211.993500 258.981171,206.464844 
	C261.418427,206.102921 263.681976,206.075241 266.336853,206.078583 
	C270.172729,206.411438 273.617279,206.713287 277.416870,207.173172 
	C280.143463,207.558319 282.515045,207.785431 284.886597,208.012527 
z"/>
<path fill="#575464" opacity="1.000000" stroke="none" 
	d="
M277.061829,207.015121 
	C273.617279,206.713287 270.172729,206.411438 266.102051,205.888367 
	C265.693146,204.382538 265.910370,203.097916 266.127594,201.813293 
	C266.596222,201.634979 267.064850,201.456665 267.897125,201.177460 
	C270.751770,200.725723 273.242767,200.374893 276.275085,200.237427 
	C276.893311,200.604843 276.970245,200.758881 277.036560,201.348541 
	C277.037903,203.527802 277.049866,205.271454 277.061829,207.015121 
z"/>
<path fill="#7B7984" opacity="1.000000" stroke="none" 
	d="
M290.372711,210.878983 
	C289.981140,210.679291 289.979126,210.501221 289.973541,210.055313 
	C293.400146,207.248779 296.830322,204.710068 300.585846,202.086212 
	C302.376526,202.574844 303.841827,203.148605 305.307159,203.722382 
	C305.404449,204.346741 305.501740,204.971115 305.599060,205.595490 
	C300.653442,207.363846 295.707855,209.132217 290.372711,210.878983 
z"/>
<path fill="#7B7984" opacity="1.000000" stroke="none" 
	d="
M265.758728,201.684158 
	C265.910370,203.097916 265.693146,204.382538 265.710724,205.857346 
	C263.681976,206.075241 261.418427,206.102921 258.719635,206.195236 
	C257.554352,205.710892 256.824280,205.161896 256.094238,204.612915 
	C256.751465,204.008331 257.321838,203.051804 258.081970,202.864319 
	C260.479675,202.272858 262.948547,201.969727 265.758728,201.684158 
z"/>
<path fill="#35D5BD" opacity="1.000000" stroke="none" 
	d="
M215.060333,186.646027 
	C212.604767,191.848419 208.612701,193.558655 204.627731,191.501038 
	C201.121521,189.690613 199.893845,184.544464 202.140518,181.075211 
	C204.226379,177.854279 209.309830,176.651413 212.174820,179.391312 
	C213.826050,180.970459 214.175125,183.911163 215.060333,186.646027 
z"/>
<path fill="#FBF8F8" opacity="1.000000" stroke="none" 
	d="
M277.047211,200.912933 
	C276.970245,200.758881 276.893311,200.604843 276.666534,200.240265 
	C276.260620,194.934174 275.877960,189.840897 275.786072,184.742386 
	C275.703125,180.141876 275.938354,175.535629 276.455109,170.378601 
	C279.664581,169.410706 282.452209,168.996140 285.239838,168.581573 
	C285.943939,173.076080 286.592712,177.580170 287.370850,182.061813 
	C287.923096,185.242355 288.649902,188.392578 289.298798,191.556335 
	C289.792145,191.480392 290.285461,191.404434 290.778778,191.328491 
	C289.815582,194.345825 288.852417,197.363159 287.668671,200.673492 
	C287.448120,200.966507 287.490631,200.966324 287.023743,200.879211 
	C283.386963,200.832367 280.217102,200.872650 277.047211,200.912933 
z"/>
<path fill="#9AC986" opacity="1.000000" stroke="none" 
	d="
M285.196472,168.218750 
	C282.452209,168.996140 279.664581,169.410706 276.488342,169.917648 
	C276.092987,166.631012 276.086243,163.252014 276.564514,159.428986 
	C278.689606,158.987305 280.329620,158.989655 281.969666,158.992004 
	C283.030823,161.946655 284.091980,164.901291 285.196472,168.218750 
z"/>
<path fill="#A3D78D" opacity="1.000000" stroke="none" 
	d="
M282.000793,158.589691 
	C280.329620,158.989655 278.689606,158.987305 276.647125,158.974136 
	C276.244690,153.931366 276.244690,148.899414 276.244690,143.867462 
	C276.714539,143.744385 277.184387,143.621307 277.654205,143.498230 
	C279.113464,148.394608 280.572693,153.291000 282.000793,158.589691 
z"/>
<path fill="#7A7683" opacity="1.000000" stroke="none" 
	d="
M277.036560,201.348541 
	C280.217102,200.872650 283.386963,200.832367 287.043274,200.875183 
	C286.406311,201.794724 285.282959,202.631165 284.307922,203.357193 
	C284.601318,204.786118 284.869690,206.092957 285.012329,207.706146 
	C282.515045,207.785431 280.143463,207.558319 277.416870,207.173172 
	C277.049866,205.271454 277.037903,203.527802 277.036560,201.348541 
z"/>
</svg>